<?xml version="1.0" encoding="utf-8"?>
<svg xmlns="http://www.w3.org/2000/svg" viewBox="0 0 24 24" fill="#656874"><path d="M 4.5117188 3.6660156 C 4.3539687 3.6660156 4.1951406 3.7514219 4.1191406 3.9199219 L 3.6191406 5.0273438 L 2.390625 5.1425781 C 2.010625 5.1775781 1.8622969 5.6534375 2.1542969 5.8984375 L 3.0429688 6.640625 L 2.7832031 7.8105469 C 2.7022031 8.1775469 3.097875 8.4644375 3.421875 8.2734375 L 4.5117188 7.6308594 L 5.6054688 8.2597656 C 5.9374687 8.4507656 6.334375 8.1443906 6.234375 7.7753906 L 5.9277344 6.6425781 L 6.8417969 5.9003906 C 7.1407969 5.6573906 6.992375 5.175625 6.609375 5.140625 L 5.4023438 5.0292969 L 4.9023438 3.9199219 C 4.8263438 3.7514219 4.6694688 3.6660156 4.5117188 3.6660156 z M 11 5 A 1.0001 1.0001 0 1 0 11 7 L 21 7 A 1.0001 1.0001 0 1 0 21 5 L 11 5 z M 4.5097656 9.6660156 C 4.3520156 9.6660156 4.1951406 9.7494688 4.1191406 9.9179688 L 3.6191406 11.027344 L 2.390625 11.140625 C 2.010625 11.176625 1.8612969 11.653438 2.1542969 11.898438 L 3.0429688 12.640625 L 2.7832031 13.810547 C 2.7022031 14.177547 3.0969219 14.464438 3.4199219 14.273438 L 4.5117188 13.630859 L 5.6054688 14.259766 C 5.9374687 14.450766 6.334375 14.144391 6.234375 13.775391 L 5.9277344 12.642578 L 6.8417969 11.900391 C 7.1407969 11.657391 6.992375 11.175625 6.609375 11.140625 L 5.4023438 11.029297 L 4.9023438 9.9179688 C 4.8263437 9.7494688 4.6675156 9.6660156 4.5097656 9.6660156 z M 11 11 A 1.0001 1.0001 0 1 0 11 13 L 21 13 A 1.0001 1.0001 0 1 0 21 11 L 11 11 z M 4.5097656 15.666016 C 4.3520156 15.666016 4.1951406 15.751422 4.1191406 15.919922 L 3.6191406 17.027344 L 2.390625 17.142578 C 2.010625 17.178578 1.8612969 17.653437 2.1542969 17.898438 L 3.0429688 18.642578 L 2.7832031 19.810547 C 2.7022031 20.176547 3.0969219 20.464437 3.4199219 20.273438 L 4.5117188 19.630859 L 5.6054688 20.259766 C 5.9374687 20.450766 6.334375 20.144391 6.234375 19.775391 L 5.9277344 18.642578 L 6.8417969 17.900391 C 7.1407969 17.657391 6.992375 17.175625 6.609375 17.140625 L 5.4023438 17.029297 L 4.9023438 15.919922 C 4.8263437 15.751422 4.6675156 15.666016 4.5097656 15.666016 z M 11 17 A 1.0001 1.0001 0 1 0 11 19 L 21 19 A 1.0001 1.0001 0 1 0 21 17 L 11 17 z" fill="#656874"/></svg>
