<?xml version="1.0" encoding="utf-8"?>
<svg xmlns="http://www.w3.org/2000/svg" viewBox="0 0 24 24" fill="#787c87"><path d="M 12 2 C 6.477 2 2 6.477 2 12 C 2 17.523 6.477 22 12 22 C 17.523 22 22 17.523 22 12 C 22 6.477 17.523 2 12 2 z M 16.916016 6.5332031 C 17.280535 6.4908477 17.59425 6.8720625 17.421875 7.2421875 L 14.498047 13.527344 C 14.299047 13.955344 13.955344 14.299047 13.527344 14.498047 L 7.2421875 17.421875 C 6.8191875 17.618875 6.381125 17.180813 6.578125 16.757812 L 9.5019531 10.472656 C 9.7009531 10.045656 10.044656 9.7009531 10.472656 9.5019531 L 16.757812 6.578125 C 16.810688 6.5535 16.863941 6.5392539 16.916016 6.5332031 z M 12 10.900391 C 11.39 10.900391 10.900391 11.39 10.900391 12 C 10.900391 12.61 11.39 13.099609 12 13.099609 C 12.61 13.099609 13.099609 12.61 13.099609 12 C 13.099609 11.39 12.61 10.900391 12 10.900391 z" fill="#787c87"/></svg>
