<svg width="1440" height="271" viewBox="0 0 1440 271" fill="none" xmlns="http://www.w3.org/2000/svg">
<path d="M787.406 116.361C484.227 67.9956 136.144 96.2089 0 116.361V271H1440V74C1348.79 108.273 1090.59 164.727 787.406 116.361Z" fill="#18181B"/>
<path d="M652.594 140.695C955.773 99.9404 1303.86 123.714 1440 140.695V271H0V105C91.2067 133.88 349.415 181.45 652.594 140.695Z" fill="#1D1D20"/>
<path d="M787.406 179.159C484.227 150.434 136.144 167.19 0 179.159L0 271L1440 271V154C1348.79 174.355 1090.59 207.884 787.406 179.159Z" fill="#222225"/>
<path d="M652.594 212.912C955.773 194.745 1303.86 205.342 1440 212.912V271L0 271V197C91.2067 209.874 349.415 231.08 652.594 212.912Z" fill="#1F2023"/>
<circle cx="83" cy="70" r="5" fill="#1F2023"/>
<circle cx="338" cy="22" r="5" fill="#1F2023"/>
<circle cx="611" cy="66.1699" r="5" fill="#1F2023"/>
<circle cx="672" cy="76" r="5" fill="#1F2023"/>
<circle cx="877" cy="87.1699" r="5" fill="#1F2023"/>
<circle cx="1155" cy="67.1699" r="5" fill="#1F2023"/>
<circle cx="935" cy="96" r="5" fill="#1F2023"/>
<circle cx="524" cy="65" r="5" fill="#1F2023"/>
<circle cx="270.83" cy="17.8301" r="5" fill="#1F2023"/>
<circle cx="171" cy="39" r="5" fill="#1F2023"/>
<circle cx="514" cy="21" r="5" fill="#1F2023"/>
<circle cx="790" cy="31" r="5" fill="#1F2023"/>
<circle cx="1074.83" cy="55" r="5" fill="#1F2023"/>
<circle cx="1315" cy="85" r="5" fill="#1F2023"/>
<circle cx="996" cy="37" r="5" fill="#1F2023"/>
<circle cx="123" cy="53" r="4" stroke="#1F2023" stroke-width="2"/>
<circle cx="20" cy="39.1699" r="4" stroke="#1F2023" stroke-width="2"/>
<circle cx="423" cy="5.16992" r="4" stroke="#1F2023" stroke-width="2"/>
<circle cx="710" cy="26" r="4" stroke="#1F2023" stroke-width="2"/>
<circle cx="955" cy="67.1699" r="4" stroke="#1F2023" stroke-width="2"/>
<circle cx="1223" cy="37.1699" r="4" stroke="#1F2023" stroke-width="2"/>
<circle cx="1274" cy="57" r="4" stroke="#1F2023" stroke-width="2"/>
<circle cx="301.83" cy="58.8301" r="4" stroke="#1F2023" stroke-width="2"/>
<circle cx="563.83" cy="24" r="4" stroke="#1F2023" stroke-width="2"/>
<circle cx="829.83" cy="55" r="4" stroke="#1F2023" stroke-width="2"/>
<circle cx="784" cy="82" r="4" stroke="#1F2023" stroke-width="2"/>
<circle cx="396" cy="50" r="4" stroke="#1F2023" stroke-width="2"/>
<circle cx="1095.83" cy="86" r="4" stroke="#1F2023" stroke-width="2"/>
<circle cx="1363.83" cy="56" r="4" stroke="#1F2023" stroke-width="2"/>
<circle cx="1218" cy="100" r="4" stroke="#1F2023" stroke-width="2"/>
<line x1="78" y1="25" x2="78" y2="31" stroke="#1F2023" stroke-width="2" stroke-linecap="round"/>
<line x1="75" y1="28" x2="81" y2="28" stroke="#1F2023" stroke-width="2" stroke-linecap="round"/>
<line x1="354" y1="66" x2="354" y2="72" stroke="#1F2023" stroke-width="2" stroke-linecap="round"/>
<line x1="351" y1="69" x2="357" y2="69" stroke="#1F2023" stroke-width="2" stroke-linecap="round"/>
<line x1="631" y1="18.1699" x2="631" y2="24.1699" stroke="#1F2023" stroke-width="2" stroke-linecap="round"/>
<line x1="628" y1="21.1699" x2="634" y2="21.1699" stroke="#1F2023" stroke-width="2" stroke-linecap="round"/>
<line x1="897" y1="49.1699" x2="897" y2="55.1699" stroke="#1F2023" stroke-width="2" stroke-linecap="round"/>
<line x1="894" y1="52.1699" x2="900" y2="52.1699" stroke="#1F2023" stroke-width="2" stroke-linecap="round"/>
<line x1="437.17" y1="65" x2="437.17" y2="71" stroke="#1F2023" stroke-width="2" stroke-linecap="round"/>
<line x1="434.17" y1="68" x2="440.17" y2="68" stroke="#1F2023" stroke-width="2" stroke-linecap="round"/>
<line x1="1165" y1="19.1699" x2="1165" y2="25.1699" stroke="#1F2023" stroke-width="2" stroke-linecap="round"/>
<line x1="1162" y1="22.1699" x2="1168" y2="22.1699" stroke="#1F2023" stroke-width="2" stroke-linecap="round"/>
<line x1="716" y1="84" x2="716" y2="90" stroke="#1F2023" stroke-width="2" stroke-linecap="round"/>
<line x1="713" y1="87" x2="719" y2="87" stroke="#1F2023" stroke-width="2" stroke-linecap="round"/>
<line x1="223" y1="52" x2="223" y2="58" stroke="#1F2023" stroke-width="2" stroke-linecap="round"/>
<line x1="220" y1="55" x2="226" y2="55" stroke="#1F2023" stroke-width="2" stroke-linecap="round"/>
<line x1="143" y1="78" x2="143" y2="84" stroke="#1F2023" stroke-width="2" stroke-linecap="round"/>
<line x1="140" y1="81" x2="146" y2="81" stroke="#1F2023" stroke-width="2" stroke-linecap="round"/>
<line x1="473" y1="39" x2="473" y2="45" stroke="#1F2023" stroke-width="2" stroke-linecap="round"/>
<line x1="470" y1="42" x2="476" y2="42" stroke="#1F2023" stroke-width="2" stroke-linecap="round"/>
<line x1="751" y1="48.1699" x2="751" y2="54.1699" stroke="#1F2023" stroke-width="2" stroke-linecap="round"/>
<line x1="748" y1="51.1699" x2="754" y2="51.1699" stroke="#1F2023" stroke-width="2" stroke-linecap="round"/>
<line x1="1017" y1="79.1699" x2="1017" y2="85.1699" stroke="#1F2023" stroke-width="2" stroke-linecap="round"/>
<line x1="1014" y1="82.1699" x2="1020" y2="82.1699" stroke="#1F2023" stroke-width="2" stroke-linecap="round"/>
<line x1="1241" y1="71" x2="1241" y2="77" stroke="#1F2023" stroke-width="2" stroke-linecap="round"/>
<line x1="1238" y1="74" x2="1244" y2="74" stroke="#1F2023" stroke-width="2" stroke-linecap="round"/>
<line x1="1131" y1="89" x2="1131" y2="95" stroke="#1F2023" stroke-width="2" stroke-linecap="round"/>
<line x1="1128" y1="92" x2="1134" y2="92" stroke="#1F2023" stroke-width="2" stroke-linecap="round"/>
</svg>
