<svg width="800" height="578" viewBox="0 0 800 578" fill="none" xmlns="http://www.w3.org/2000/svg">
<g clip-path="url(#clip0)">
<path d="M790.5 221.5C751.7 95.6 613.8 25.7 483.4 6.00004C346.7 -14.8 201.4 17.7 102.4 111.2C59.1997 151.9 26.1997 202.6 9.99972 258.1C-7.20028 317.1 -6.50028 389.6 46.2997 433.4C54.6997 440.4 63.9997 445.9 73.8997 450.4C72.7997 453.6 73.9997 457.4 78.5997 458.1C237.2 483.5 399.6 484.4 558.3 460.5C596.7 454.7 635.3 448 672.9 438.7C705.4 430.7 737.2 418.5 759.6 394.1C802.6 347.2 808 278.7 790.5 221.5Z" fill="#1F2023"/>
<path d="M518.099 302.8C513.199 287.6 501.599 268.8 483.299 271.1C479.799 271.5 478.699 275.4 479.899 277.6C480.299 278.7 481.099 279.5 482.299 280C498.899 286.9 514.099 308.7 498.899 324.8C494.599 329.4 483.299 329.7 482.199 336.7C480.999 344.4 489.899 345.1 494.999 342.9C511.199 336.2 523.899 321.3 518.099 302.8Z" fill="#57455D"/>
<path d="M775.1 415.3C729.5 378.1 658.2 360 592.5 352.5C513.3 343.5 430.7 345.4 351.1 350.6C273.2 355.7 195.1 368.3 131.3 402.5C109.2 408.6 87.5999 415.4 67.4999 424.1C41.7999 435.1 15.9999 450.4 4.89985 471.3C-5.20015 490.3 0.899851 511.1 18.8999 526.3C38.6999 543 69.0999 552.1 97.6999 558.1C138 566.7 179.6 572 221.2 575C304.5 580.9 388.6 576.5 471.1 566.9C514.3 561.9 557 555.4 599.5 548.2C638.5 541.5 678.4 535.3 716.2 525.4C748.6 517 779.7 503.1 793.9 479.3C807.5 456.3 797.1 433.3 775.1 415.3Z" fill="white"/>
<path d="M485.199 308.6C483.299 307 481.399 306.2 479.499 305.8C479.099 305.7 478.699 305.4 478.299 305.3C471.399 302.9 464.499 307.2 460.899 313C455.899 321 457.499 331.5 458.099 340.4C458.499 346.2 458.899 351.9 459.599 357.7C460.099 362.2 460.299 367.3 461.999 371.3C462.499 372.5 464.199 373.3 465.499 373.3C472.799 373.4 484.199 369.5 488.399 363.1C493.399 355.3 494.299 343.4 494.199 334.5C494.099 325.6 492.199 314.6 485.199 308.6Z" fill="#EF86B0"/>
<path d="M479.9 259.6C472.1 242.2 450.2 231.1 432 229.7C412.3 228.1 392.5 237.9 384.1 256.3C374.9 276.3 381.9 298.9 399.3 311.7C399.7 313.2 400.9 314.4 402.9 314.3C416.4 313.9 429.7 313.5 443.2 313C452 312.7 461.1 312.1 469.1 308C486.4 299.3 486.9 275.2 479.9 259.6Z" fill="#B4C7E7"/>
<path d="M509.099 367.8L491.799 383.7C488.199 387.1 482.099 394.8 476.299 396.5C484.399 371.6 483.399 344 473.199 319.8C468.499 308.6 462.399 302.8 449.899 302.4C433.899 301.9 417.699 303.5 401.799 306.2C399.099 306.6 398.399 309 399.099 311.1C398.999 311.2 398.999 311.5 398.799 311.6C390.699 334.1 384.999 357.5 382.199 381.2C381.099 390.2 378.199 402.5 384.399 410.3C390.099 417.6 400.699 418.4 409.099 418.7C421.399 419.1 433.499 416.8 445.599 414.8C457.699 412.9 470.099 411.7 481.999 408.6C500.499 403.7 513.399 389.6 515.899 370.6C516.499 367 511.299 365.8 509.099 367.8Z" fill="white"/>
<path d="M460.4 262.3C459.7 258.9 454.5 258.3 453 261.4C450.8 265.7 448.7 273 445.4 276.6C443.5 278.8 442.7 278.4 439.5 278.2C437.1 278.2 434.5 278.2 432.1 278.2C431 278.2 425.6 278.7 424.7 278.2C423.5 277.4 422.5 274 421.9 272.7C419.7 268 417 263.5 413.9 259.3C412 256.6 407.4 256.6 406.5 260.2C402.9 274 401.6 287.8 403 302C403.3 304.4 405.2 305.8 407 305.9C407.3 306.2 407.7 306.4 408.1 306.7C415.5 310.5 424.3 308.6 432.2 307.6C441.5 306.4 450.5 304.5 459.6 301.9C461.4 301.4 462.4 299.7 462.6 298C463.5 285.9 462.7 274.1 460.4 262.3Z" fill="#161618"/>
<path d="M625.599 181.1C609.799 166.9 586.599 163.4 566.899 171C544.399 179.6 529.799 200.5 528.299 224.4C525.299 228.3 522.899 232.4 521.199 237.1C520.299 239.5 522.699 242.4 525.099 242.2C529.599 242.1 534.299 237.3 538.499 238.8C540.699 239.6 542.999 241.9 544.799 243C547.799 244.8 550.699 246.2 553.799 247.6C564.899 252.6 576.899 257.6 588.699 259.7C608.899 263.5 628.999 255 637.799 235.7C646.299 217.2 640.499 194.6 625.599 181.1Z" fill="white"/>
<path d="M613.999 209.5C613.199 204.5 609.999 199.9 605.499 197.5C604.799 196.6 603.899 195.9 602.499 195.7C600.899 195.6 599.299 195.6 597.599 195.7C597.499 195.7 597.299 195.7 597.199 195.7C595.999 195.8 594.899 196.1 593.799 196.6C581.299 201.2 575.599 218.4 587.999 228.3C601.599 239.1 619.499 223.8 613.999 209.5Z" fill="#B4C7E7"/>
<path d="M604.699 210.5C604.799 209.4 604.599 208.3 603.399 207.4C593.999 199.7 577.199 205.1 566.699 210.8C563.899 207 560.399 204.1 555.899 202C552.299 200.4 548.299 203.8 550.399 207.5C552.699 212.1 556.099 215.6 559.699 219C558.199 221.3 557.099 223.6 556.299 226.4C555.399 229.5 559.299 233.1 562.199 231C564.799 229.1 566.799 227.1 568.699 224.7C574.199 226.7 579.899 227.4 585.799 226.5C591.999 225.6 601.299 222.5 604.299 216.5C605.799 213.8 605.599 211.9 604.699 210.5Z" fill="#74A2D6"/>
<path d="M398.5 303C397.2 303.3 396.3 304.1 395.9 304.9C395.5 305.2 395 305.4 394.6 305.7C392.3 307.3 392 309.9 393.8 312C397.4 316.5 403.5 316.5 408.8 317C417.6 317.8 426.3 318.3 435.1 318.3C443.9 318.3 452.6 317.9 461.4 317C465.9 316.6 473 316.5 474.8 311.2C480.5 294.1 407.1 300.8 398.5 303Z" fill="#EF86B0"/>
<path d="M459.8 392.1C458.7 383.2 457.9 374.3 456.7 365.4C455.8 358.8 452.7 355.7 445.9 354.6C436.9 353.3 427.7 352.6 418.7 351.8C399.4 350 380.3 348.4 361 347.2C359.7 347.1 358.7 347.6 358 348.4C357.6 348.5 357.3 348.8 357.1 349.1C344.7 361.4 332.2 373.5 319.5 385.5C313.8 390.9 308 396.2 302.2 401.5C299.8 403.7 297.9 404.9 297.2 407.8C296.3 411.8 297.1 417 297.1 421.2C297 429.6 296.8 438.1 296.8 446.4C296.7 452.1 296.4 456.8 302.1 459.6C308.3 462.7 316.5 463.4 323.3 464.5C331 465.6 338.8 466.3 346.6 466.8C354.6 467.3 362.6 468 370.6 468.6C377.7 469.1 385.3 470.4 392.4 469C399.5 467.8 405.1 463.5 410.7 459.3C417.7 454 424.7 448.8 431.7 443.5C438 438.8 444.4 434.1 450.7 429.3C455.7 425.7 461.4 422.3 462.3 415.7C463.2 408.2 460.6 399.4 459.8 392.1Z" fill="#F7D3BC"/>
<path d="M419.5 352.2C411 348.7 402.2 346.8 392.9 346C390.9 345.9 389.7 346.9 389.3 348.3C374.6 359.4 360.6 371.4 347.4 384.2C341.7 389.7 335.4 395.4 331.5 402.5C327.3 410.1 327.3 418.5 327.7 426.9C327.8 429.1 329.5 431.1 331.7 430.9C340.2 430.5 348.7 430.2 357.2 429.8C359 429.7 360.7 428.6 361.1 426.8C361.8 424.2 361.5 422.1 360.4 419.7C359.9 418.5 358.2 416.9 358.2 415.7C358.1 413.1 361.2 411.2 362.8 410C370.2 404.6 377.4 399.2 384.5 393.5C391.6 387.8 398.8 382 405.7 376C411.9 370.6 418 365.2 421.7 357.8C423.3 355.6 422.1 353.3 419.5 352.2Z" fill="#F5D8B9"/>
<path d="M445.4 339.5C441.2 330.9 429.2 330.6 421 330.9C416.5 331 410.8 331 407.1 334C404.5 336 403.6 339 403.3 342.1C402.4 343.4 402.2 345.5 403.3 347C403.7 349.7 406.5 350.8 408.7 350.1C412.5 352.3 415.8 355.1 420.3 356.3C425.4 357.8 431 358.1 436.3 358.1C440.2 358.1 443.9 357.6 445.6 353.6C447.3 349.6 447.3 343.4 445.4 339.5Z" fill="#F5D8B9"/>
<path d="M412.799 285.3C407.499 285.3 407.499 293.4 412.799 293.4C417.999 293.4 417.999 285.3 412.799 285.3Z" fill="#57455D"/>
<path d="M450.7 285.3C445.4 285.3 445.4 293.4 450.7 293.4C455.8 293.4 455.8 285.3 450.7 285.3Z" fill="#57455D"/>
<path d="M441.5 291.2C438.9 289 435.7 285 431.9 285.9C428.7 286.7 426.2 290.4 424.3 292.8C423 294.6 424 297.4 425.8 298.3C427.8 299.5 430 298.6 431.3 296.8C431.8 296.1 432.5 295.5 433.1 294.8L433.2 294.7C433.3 294.8 433.5 295 433.6 295C434.3 295.7 435.1 296.2 435.8 296.9C437.4 298.4 439.8 298.5 441.5 296.9C442.8 295.6 443.1 292.7 441.5 291.2Z" fill="#57455D"/>
<path d="M459.8 260.5C459.5 258.3 456.7 257.1 454.8 257.7C452.5 258.4 451.7 260.5 452 262.7C452.3 264.9 452.3 267.2 452.1 269.3C452 271.5 454.1 273.3 456.1 273.3C458.4 273.3 460 271.4 460.1 269.3C460.4 266.3 460.2 263.5 459.8 260.5Z" fill="#57455D"/>
<path d="M413.7 260.1C413.2 257.9 410.9 256.7 408.7 257.3C406.5 257.9 405.3 260.1 405.9 262.3C406.4 264.3 406.6 265.8 406.6 268.1C406.6 270.3 408.5 272.1 410.6 272.1C412.9 272.1 414.6 270.2 414.6 268.1C414.8 265.4 414.4 262.7 413.7 260.1Z" fill="#57455D"/>
<path d="M405.8 289.9C402.8 289.2 400.4 287.7 398.2 285.6C394.6 281.8 388.9 287.6 392.5 291.3C393.7 292.5 395.1 293.7 396.5 294.7C396.4 294.7 396.1 294.8 396 294.8C394 295.5 392.5 297.6 393.2 299.8C393.9 301.8 396 303.3 398.2 302.6C399.1 302.3 400 302.1 400.9 301.9C401.3 301.8 401.7 301.8 402.2 301.6C402.3 301.6 402.3 301.6 402.3 301.6C402.6 301.6 402.7 301.6 403 301.5C405.2 301.2 407.2 299.7 407 297.5C407 297.4 407 297.1 406.9 297C409.3 295.2 409.4 290.7 405.8 289.9Z" fill="#57455D"/>
<path d="M469.8 284.5C466.4 286.5 463.1 288.1 459.4 289.5C456.8 290.4 456.2 293.1 457 295.2C456.5 297 457.3 298.7 458.9 299.8C462.1 302.2 465.9 303.3 470 303.7C472.2 304 474 301.7 474 299.7C474 297.3 472.1 295.9 470 295.7C469.1 295.6 468.2 295.4 467.4 295.2C469.7 294.1 472 293 474.1 291.7C478.3 288.8 474.3 281.8 469.8 284.5Z" fill="#57455D"/>
<path d="M595.499 209.3C590.199 209.3 590.199 217.4 595.499 217.4C600.799 217.3 600.799 209.3 595.499 209.3Z" fill="#1F2023"/>
<path d="M580 213.3H576.6C574.4 213.3 572.4 215.2 572.6 217.3C572.7 219.5 574.4 221.3 576.6 221.3H580C582.2 221.3 584.2 219.4 584 217.3C583.9 215.2 582.3 213.3 580 213.3Z" fill="#1F2023"/>
<path d="M593.3 220.3C592.2 215.3 591 210.5 589.9 205.5C588.7 200.4 580.9 202.5 582.1 207.7C583.2 212.7 584.4 217.5 585.5 222.5C586.7 227.6 594.6 225.4 593.3 220.3Z" fill="#EF86B0"/>
<path d="M479.7 392.3C477.7 391.9 475.1 393 474.7 395.1C474.4 396.6 474.2 398.1 473.8 399.6C473.4 401.6 474.3 404.1 476.6 404.6C478.6 405 481.2 403.9 481.6 401.8C481.9 400.3 482.1 398.8 482.5 397.3C482.9 395.2 481.9 392.8 479.7 392.3Z" fill="#1F2023"/>
<path d="M446.9 339.4C446 343.6 445.599 347.9 445.799 352.2C446.199 357.3 454.3 357.5 453.9 352.2C453.6 348.6 453.9 345.1 454.7 341.5C455.9 336.4 448.1 334.3 446.9 339.4Z" fill="#1F2023"/>
<path d="M468.1 344.9C467.6 339.8 459.5 339.8 460 344.9C462.3 364.3 461.9 383.9 458.7 403.2C457.9 408.3 465.6 410.5 466.5 405.4C469.8 385.4 470.4 365.2 468.1 344.9Z" fill="#1F2023"/>
<path d="M447.599 363.1C432.999 380.2 417.399 396.4 400.699 411.5C399.899 412.3 399.499 413.1 399.499 414.1C384.399 411.5 369.199 409.2 353.899 407.4C356.199 405 358.599 402.7 360.799 400.3C376.299 384.1 391.699 367.8 407.199 351.6C410.799 347.8 404.999 342.2 401.499 345.9C384.199 364.1 366.799 382.3 349.599 400.5C347.799 402.4 345.799 404.3 344.099 406.3C330.599 404.7 317.099 403.3 303.599 402.4C298.499 402 298.499 410.1 303.599 410.5C315.699 411.4 327.699 412.7 339.699 414C338.599 417.6 338.599 421.6 338.399 425.2C337.299 437.2 336.399 449.1 335.299 461.1C334.899 466.2 342.999 466.2 343.399 461.1C344.299 450.4 345.199 439.8 346.099 429.1C346.499 424.4 346.199 419.4 348.099 415.1C364.599 417.1 380.999 419.4 397.299 422.2C397.599 435.6 396.399 448.8 393.799 461.8C392.699 466.9 400.499 469.1 401.599 464C404.699 449 405.899 434.1 405.399 418.8C405.399 418.7 405.399 418.5 405.399 418.3C405.799 418.2 406.199 417.9 406.499 417.6C423.099 402.5 438.699 386.3 453.399 369.2C456.599 365 450.899 359.2 447.599 363.1Z" fill="#1F2023"/>
<path d="M438.399 342.6C430.599 341.1 422.799 340.3 414.799 340C409.499 339.9 409.499 348 414.799 348.1C422.099 348.4 429.099 349 436.199 350.4C441.399 351.4 443.499 343.6 438.399 342.6Z" fill="#1F2023"/>
<path d="M580.5 319.6C585 318.5 584 311.6 579.4 311.6C578.6 311.6 577.5 311.1 577.6 310C578.1 307.2 576 305.3 573.8 305C571.5 302.7 566.4 305 566.9 309.2C567.4 312.6 566.8 316.1 565.3 319C561.8 320.3 560.2 324.4 563.3 327.9C564.6 329.4 567.8 329.5 569 327.9C569.3 327.6 569.5 327.2 569.8 327C571 327.4 572.1 328.3 573 329.3C573.5 330.1 574.2 331.1 574.9 331.7C578 335.1 583.7 330.6 581.2 326.8C580.7 326 580.1 325.3 579.6 324.6C578.5 322.7 577.8 320.1 580.5 319.6Z" fill="#F5D8B9"/>
<path d="M492.2 67.1L487.5 66.8C487.2 65 487.1 63.4 486.8 61.7C486.1 56.6 478 56.6 478.7 61.7C478.8 63.2 479.1 64.8 479.2 66.3L476 66C470.7 65.6 470.9 73.7 476 74.1C477.3 74.2 478.8 74.2 480.2 74.4C480.3 75.7 480.5 77.2 480.7 78.6C481.4 83.7 489.5 83.7 488.8 78.6C488.7 77.4 488.5 76.2 488.4 75C489.6 75.1 491 75.1 492.2 75.3C497.3 75.6 497.3 67.5 492.2 67.1Z" fill="#F5D8B9"/>
<path d="M308.4 100.6C306.5 100.5 304.5 100.3 302.6 100.2C302.1 96.6998 301.5 93.1998 301 89.6998C300.2 84.5998 292.4 86.6998 293.2 91.8998C293.6 94.6998 294 97.3998 294.5 100.3C293.2 100.3 291.9 100.4 290.6 100.4C285.5 100.7 285.3 108.8 290.6 108.5C292.4 108.4 294.1 108.4 295.7 108.4C296.1 111.1 296.5 113.8 296.9 116.5C297.7 121.6 305.5 119.5 304.7 114.3L303.8 108.5C305.3 108.6 306.8 108.6 308.4 108.8C313.6 109.1 313.6 101 308.4 100.6Z" fill="#F5D8B9"/>
<path d="M356.699 209.1C355.099 209 353.299 209 351.699 208.8C351.599 206 351.699 203.1 352.099 200.2C352.599 195.1 344.499 195.1 343.999 200.2C343.699 202.9 343.599 205.6 343.599 208.3C341.999 208.2 340.499 208.2 338.899 208C333.599 207.7 333.799 215.8 338.899 216.1L344.199 216.4C344.499 218.7 344.899 221 345.499 223.3C346.699 228.4 354.499 226.3 353.299 221.1C352.899 219.8 352.799 218.3 352.499 216.9C353.999 217 355.299 217 356.799 217.2C361.899 217.5 361.799 209.4 356.699 209.1Z" fill="#F5D8B9"/>
<path d="M171.1 251.6C168.4 250.9 165.7 250.5 162.9 250.1C163 247 163 243.8 162.9 240.7C162.6 235.6 154.5 235.4 154.8 240.7C154.9 243.7 154.9 246.6 154.8 249.5C153.3 249.5 151.8 249.4 150.3 249.4C145 249.4 145 257.5 150.3 257.5C151.5 257.5 152.7 257.5 153.9 257.5C153.4 262.5 160.9 264.5 161.7 259.5C161.7 259.1 161.8 258.7 161.8 258.2C164.1 258.5 166.4 258.9 168.7 259.4C173.9 260.5 176.1 252.7 171.1 251.6Z" fill="#F5D8B9"/>
<path d="M261.3 302.3H253.1C252.8 298.8 252.3 295.3 251.5 291.8C250.3 286.7 242.5 288.8 243.7 294C244.4 296.8 244.8 299.5 245 302.4H242.7C237.4 302.4 237.4 310.5 242.7 310.5H245.3C245.3 312.5 245.2 314.5 244.9 316.7C244.4 321.8 252.5 321.8 253 316.7C253.3 314.7 253.4 312.5 253.4 310.5H261.4C266.6 310.4 266.6 302.3 261.3 302.3Z" fill="#F5D8B9"/>
<path d="M542.9 269.3C537.6 269.3 537.6 277.4 542.9 277.4C548 277.4 548.2 269.3 542.9 269.3Z" fill="white"/>
<path d="M690.799 262.9C685.499 262.9 685.499 271 690.799 271C695.999 271 695.999 262.9 690.799 262.9Z" fill="white"/>
<path d="M472.4 219.2C467.1 219.2 467.1 227.3 472.4 227.3C477.5 227.3 477.6 219.2 472.4 219.2Z" fill="white"/>
<path d="M512.2 161.6C506.9 161.6 506.9 169.7 512.2 169.7C517.5 169.7 517.4 161.6 512.2 161.6Z" fill="white"/>
<path d="M457.4 116.3C452.1 116.3 452.1 124.4 457.4 124.4C462.5 124.4 462.5 116.3 457.4 116.3Z" fill="white"/>
<path d="M397.799 205.7C392.499 205.7 392.499 213.8 397.799 213.8C402.899 213.8 403.099 205.7 397.799 205.7Z" fill="white"/>
<path d="M252 161.2C249.8 161.3 248 163 248 165.2V166C248 168.2 249.9 170.2 252 170C254.2 169.9 256 168.2 256 166V165.2C256.1 163.1 254.2 161.1 252 161.2Z" fill="white"/>
<path d="M347.8 245.5H347C344.8 245.5 342.8 247.4 343 249.5C343.1 251.7 344.8 253.5 347 253.5H347.8C350 253.5 352 251.6 351.8 249.5C351.7 247.4 350.1 245.5 347.8 245.5Z" fill="white"/>
<path d="M347.799 144.9C342.499 144.9 342.499 153 347.799 153C352.999 153 352.999 144.9 347.799 144.9Z" fill="white"/>
<path d="M347.799 326C342.499 326 342.499 334.1 347.799 334.1C352.999 334.1 352.999 326 347.799 326Z" fill="white"/>
<path d="M142.6 285.3C137.3 285.3 137.3 293.4 142.6 293.4C147.8 293.4 147.8 285.3 142.6 285.3Z" fill="white"/>
<path d="M207.1 324.4C201.8 324.4 201.8 332.5 207.1 332.5C212.4 332.5 212.4 324.4 207.1 324.4Z" fill="white"/>
<path d="M218.999 243.9C213.699 243.9 213.699 252 218.999 252C224.199 252 224.199 243.9 218.999 243.9Z" fill="white"/>
<path d="M601.2 398.2C597.4 397.1 593.8 397 590 397.7C587.8 398 586.6 400.8 587.2 402.7C587.9 405 590 405.8 592.2 405.5C594.5 405.1 596.9 405.5 599.1 406C604 407.5 606.2 399.7 601.2 398.2Z" fill="#1F2023"/>
<path d="M275.2 448.9C269.3 443.8 262 441.1 254.2 441.6C250.8 441.2 247.3 441.6 244.8 444.3C241.8 447.4 241.8 452.1 244.9 455.1C252 462.1 266.5 459.1 274.3 455.2C276.7 454.2 277.1 450.5 275.2 448.9ZM253.5 450.2C253 449.9 252.7 449.8 252.4 449.8C252.5 449.8 252.7 449.8 252.9 449.8C253.3 449.8 253.6 449.8 254 449.7C254.4 449.8 254.8 449.8 255.2 450C256.1 450.3 257.1 450.1 257.8 449.7C259.4 449.8 261 450.1 262.5 450.6C261.4 450.7 260.3 450.9 259.3 450.9C257.4 450.9 255.2 450.9 253.5 450.2Z" fill="#1F2023"/>
<path d="M271 371.2L259.3 370.1C257.1 369.8 255.3 372.1 255.3 374.1C255.3 376.4 257.2 377.9 259.3 378.1L271 379.2C273.2 379.5 275 377.2 275 375.2C275.1 372.8 273.3 371.4 271 371.2Z" fill="#1F2023"/>
<path d="M383.9 503.4C378.9 501.8 373.7 502.5 369.1 504.9C364.5 507.3 368.6 514.3 373.1 511.9C375.8 510.4 378.8 510.3 381.7 511.2C386.7 512.8 388.8 505 383.9 503.4Z" fill="#1F2023"/>
<path d="M558.399 463.7C558.099 462.5 557.299 461.3 555.699 460.7C549.199 458.5 539.199 458.5 534.699 464.5C528.799 472.2 539.199 476.6 545.099 478C550.599 479.3 563.299 482 566.099 475C568.499 469.4 563.399 466 558.399 463.7ZM547.999 470.5C546.199 470.1 544.499 469.7 542.899 469C542.799 469 542.599 468.9 542.499 468.9C542.599 468.8 542.899 468.6 542.999 468.4C544.899 468.3 546.399 468 547.899 468C548.199 468.1 548.299 468.3 548.599 468.4C550.199 469.1 552.399 470.4 554.399 471.4C554.299 471.4 554.299 471.4 554.099 471.4C552.099 471.2 550.099 470.9 547.999 470.5Z" fill="#1F2023"/>
<path d="M127.1 510.5C122.6 510 118.1 510.4 113.9 511.8C109 513.6 111.1 521.4 116.1 519.6C119.7 518.4 123.4 518 127.2 518.5C129.4 518.8 131.2 516.5 131.2 514.5C131.2 512.2 129.3 510.8 127.1 510.5Z" fill="#1F2023"/>
<path d="M128.3 435.4C127.8 433.5 125.3 431.8 123.3 432.6C120.5 433.7 117.6 434.2 114.5 433.7C112.3 433.3 110.2 434.2 109.5 436.5C109 438.5 110.2 441.1 112.3 441.5C116.8 442.3 121.1 442 125.2 440.4C127.5 439.6 129 437.7 128.3 435.4Z" fill="#1F2023"/>
<path d="M756.7 463.5C752.2 461.9 748.5 458.8 745.8 454.9C749.6 440.9 726.1 437.9 716.3 438.2C714.5 438.2 712.9 438.3 711.2 438.6C710.5 438.3 709.6 438.2 708.6 438.5C701 440.5 692.7 443.5 689.4 451.3C688.5 453.5 688.2 455.5 688.3 457.5C688.2 457.8 687.9 458.2 687.8 458.4C685 463.1 681.2 467 676.9 470.5C672.9 473.7 678.5 479.4 682.6 476.2C686.4 473.2 689.6 469.9 692.4 466.1C693.6 467.2 695 468.3 696.6 468.9C704 472.5 713.2 471.7 721 470.2C727.6 469 736.2 467.2 741.5 462.2C745 466.2 749.5 469.3 754.7 471.2C759.4 473 761.5 465.2 756.7 463.5Z" fill="#1F2023"/>
<path d="M713.8 398.7C708.8 391.7 695.7 391.7 688.2 391.6C685.4 391.6 684 393.9 684.3 396.2C681.3 398.4 679.7 402.9 681.3 406.4C684.8 414.4 696.1 411.4 702.6 410.3C706 409.8 710.8 409.9 713.4 407.2C715.8 404.9 715.5 401.4 713.8 398.7ZM696.1 403.3C694.8 403.4 693.4 403.7 692.1 403.7C691.4 403.7 690.6 403.7 689.9 403.6L689.8 403.5C691.4 403.2 692.6 401.7 692.8 400C695.1 400.1 697.4 400.4 699.8 400.9C700.9 401.2 702.1 401.4 703.2 401.7C700.6 402.2 697.7 403 696.1 403.3Z" fill="#1F2023"/>
<path d="M523.6 513.5C517.3 514.3 511.1 515.1 504.7 515.9C499.6 516.6 499.6 524.7 504.7 524C511 523.2 517.2 522.4 523.6 521.6C528.7 520.9 528.7 512.8 523.6 513.5Z" fill="#1F2023"/>
<path d="M489.899 437.6H481.799C476.499 437.6 476.499 445.7 481.799 445.7H489.899C494.999 445.7 494.999 437.6 489.899 437.6Z" fill="#1F2023"/>
<path d="M299.899 527.3C297.999 523.8 294.199 523 290.599 522.7C283.299 522.2 275.899 522.6 268.599 523C267.099 523.1 265.999 523.8 265.399 524.9C259.999 527.6 255.399 532.6 259.899 538.7C265.199 546 280.499 545 288.199 543.7C295.299 542.1 304.699 535.8 299.899 527.3ZM287.899 535.3C283.899 536.4 279.399 536.5 275.199 536.1C274.099 536 268.099 535.4 267.799 534.5C266.999 531.9 270.999 531.4 272.499 531.1C272.599 531.1 272.899 531 272.999 531C276.399 530.9 279.899 530.7 283.399 530.7C285.199 530.7 287.999 530.2 289.499 530.8C292.699 532.4 290.899 534.5 287.899 535.3Z" fill="#1F2023"/>
<path d="M202.7 490.2H196C193.8 490.2 191.8 492.1 192 494.2C192.1 496.4 193.8 498.2 196 498.2H202.7C204.9 498.2 206.9 496.3 206.7 494.2C206.6 492.1 204.9 490.2 202.7 490.2Z" fill="#1F2023"/>
<path d="M48.8994 480.7H42.1994C39.9994 480.7 37.9994 482.6 38.1994 484.7C38.2994 486.9 39.9994 488.7 42.1994 488.7H48.8994C51.0994 488.7 53.0994 486.8 52.8994 484.7C52.7994 482.6 51.1994 480.7 48.8994 480.7Z" fill="#1F2023"/>
<path d="M202.7 403.9H191.9C186.6 403.9 186.6 412 191.9 412H202.7C207.8 411.9 207.8 403.9 202.7 403.9Z" fill="#1F2023"/>
<path d="M644.9 486.5C644.4 484.6 641.9 482.9 639.9 483.7C637.1 484.8 634.2 485.3 631.3 484.8C629.1 484.4 627 485.3 626.3 487.6C625.8 489.5 626.999 492.2 629.099 492.6C633.599 493.3 637.9 493.1 642 491.5C644.1 490.7 645.5 488.8 644.9 486.5Z" fill="#1F2023"/>
<path d="M559.6 369.2C556.5 368.7 553.3 368.3 550.2 367.7C548 367.3 545.9 368.2 545.2 370.5C544.7 372.4 545.9 375.1 548 375.5C551.1 376 554.3 376.4 557.4 377C559.6 377.4 561.7 376.5 562.4 374.2C563 372.3 561.9 369.6 559.6 369.2Z" fill="#1F2023"/>
<path d="M690.999 147.6C688.799 148.1 686.799 148.4 684.699 148.7L683.999 139.5C683.599 134.4 675.499 134.2 675.899 139.5L676.599 149.1C675.499 149.1 674.299 149.1 673.199 149C667.899 148.7 668.099 156.8 673.199 157.1C674.499 157.2 675.899 157.2 677.199 157.2L677.499 161.1C677.899 166.2 685.999 166.4 685.599 161.1L685.299 156.6C687.999 156.3 690.599 155.8 693.099 155.3C698.299 154.2 696.099 146.5 690.999 147.6Z" fill="#F5D8B9"/>
<path d="M92.4997 344C90.6997 344.4 88.9997 344.9 87.1997 345.3C86.4997 343.3 85.9997 341.4 85.2997 339.4C83.6997 334.4 75.8997 336.6 77.4997 341.6C78.1997 343.6 78.6997 345.5 79.3997 347.5C77.8997 347.9 76.2997 348.3 74.7997 348.7C69.7997 350 71.9997 357.9 76.9997 356.5C78.5997 356.1 80.1997 355.7 81.9997 355.2C82.3997 356.5 82.7997 357.8 83.1997 359.1C84.7997 364.1 92.5997 361.9 90.9997 356.9C90.5997 355.7 90.1997 354.3 89.7997 353.1C91.3997 352.7 92.9997 352.3 94.7997 351.8C99.5997 350.5 97.4997 342.6 92.4997 344Z" fill="#F5D8B9"/>
<path d="M169.2 127.4C167.7 127.7 166.2 127.8 164.7 128.1C164.2 124.3 163.6 120.7 163.1 116.9C162.3 111.8 154.5 113.9 155.3 119.1C155.8 122.5 156.4 126 156.8 129.3L152.9 130C147.8 130.8 149.9 138.6 155.1 137.8C156 137.7 157 137.5 158.1 137.4L158.6 140.6C159.4 145.7 167.2 143.6 166.4 138.4C166.3 137.6 166.1 136.8 166 136C167.8 135.7 169.5 135.5 171.4 135.2C176.5 134.4 174.2 126.6 169.2 127.4Z" fill="#F5D8B9"/>
<path d="M746.4 323.2C744.1 324.1 741.7 324.8 739.3 325.4C738.9 322.4 738.6 319.5 738.2 316.4C737.7 311.3 729.4 311.3 730.1 316.4C730.5 319.6 730.9 322.7 731.2 326C730.3 326 729.4 325.9 728.5 325.9C723.4 325.4 723.4 333.5 728.5 334C729.7 334.1 730.9 334.1 732.1 334.3C732.4 336.5 732.6 338.6 732.9 340.9C733.4 346 741.7 346 741 340.9C740.7 338.5 740.5 336.2 740.2 333.8C743 333.3 745.9 332.5 748.4 331.4C753.3 329 751.3 321.2 746.4 323.2Z" fill="#F5D8B9"/>
<path d="M720.499 193.5C715.199 193.5 715.199 201.6 720.499 201.6C725.599 201.6 725.599 193.5 720.499 193.5Z" fill="white"/>
<path d="M651.699 313.5C649.499 313.6 647.699 315.3 647.699 317.5V318.8C647.699 321 649.599 323 651.699 322.8C653.899 322.7 655.699 321 655.699 318.8V317.5C655.799 315.5 653.899 313.5 651.699 313.5Z" fill="white"/>
<path d="M599.1 120.6C593.8 120.6 593.8 128.7 599.1 128.7C604.3 128.7 604.3 120.6 599.1 120.6Z" fill="white"/>
<path d="M392.799 65.3999C387.499 65.3999 387.499 73.4999 392.799 73.4999C397.899 73.3999 397.899 65.3999 392.799 65.3999Z" fill="white"/>
<path d="M395.499 118C390.199 118 390.199 126.1 395.499 126.1C400.599 126 400.599 118 395.499 118Z" fill="white"/>
<path d="M226.9 108.5H225.6C223.4 108.5 221.4 110.4 221.6 112.5C221.7 114.7 223.4 116.5 225.6 116.5H226.9C229.1 116.5 231.1 114.6 230.9 112.5C230.8 110.4 229.2 108.5 226.9 108.5Z" fill="white"/>
<path d="M120.4 169.2H119C116.8 169.2 114.8 171.1 115 173.2C115.1 175.4 116.8 177.2 119 177.2H120.3C122.5 177.2 124.5 175.3 124.3 173.2C124.3 171.1 122.7 169.2 120.4 169.2Z" fill="white"/>
<path d="M74.4994 259.6C69.1994 259.6 69.1994 267.7 74.4994 267.7C79.6994 267.6 79.6994 259.6 74.4994 259.6Z" fill="white"/>
<path d="M276.8 223.1C274.6 223.2 272.8 224.9 272.8 227.1V228.4C272.8 230.6 274.7 232.6 276.8 232.4C279 232.3 280.8 230.6 280.8 228.4V227.1C280.9 225.2 279 223.1 276.8 223.1Z" fill="white"/>
<path d="M178.4 171.9H177C174.8 171.9 172.8 173.8 173 175.9C173.1 178.1 174.8 179.9 177 179.9H178.3C180.5 179.9 182.5 178 182.3 175.9C182.3 173.8 180.7 171.9 178.4 171.9Z" fill="white"/>
<path d="M152.5 346.1C150.5 345.4 148 346.9 147.5 348.9C147.1 350.5 147.6 352 148.7 352.9C148.8 354.5 150 356.1 151.7 356.4C153.9 356.9 156 355.7 156.7 353.6C157.6 350.5 155.6 347.2 152.5 346.1Z" fill="white"/>
<path d="M574.599 92.2999C571.999 92.5999 569.299 92.7999 566.799 92.9999C566.099 90.1999 565.499 87.2999 564.499 84.4999C562.899 79.4999 555.099 81.6999 556.699 86.6999C557.499 88.9999 557.999 91.3999 558.599 93.6999L554.599 94.0999C549.499 94.5999 549.499 102.7 554.599 102.2C556.499 102.1 558.399 101.8 560.099 101.7C560.399 103.3 560.499 104.9 560.599 106.6C560.999 111.7 569.099 111.9 568.699 106.6C568.599 104.7 568.299 102.8 567.999 101.1L574.299 100.6C579.699 99.9999 579.899 91.7999 574.599 92.2999Z" fill="#F5D8B9"/>
</g>
<defs>
<clipPath id="clip0">
<rect width="800" height="577.7" fill="white"/>
</clipPath>
</defs>
</svg>
