<svg width="800" height="476" viewBox="0 0 800 476" fill="none" xmlns="http://www.w3.org/2000/svg">
<g clip-path="url(#clip0)">
<path d="M776.6 164.6C754.4 122.9 715.8 84.4999 662.5 56.2999C606.5 26.5999 537.5 8.89989 465.7 2.69989C392.8 -3.70011 317.6 1.19989 247.6 15.6999C176.8 30.2999 105.6 54.5999 56.2004 90.8999C30.0004 110.1 11.3004 132.9 4.2004 158.1C-3.4996 185.5 0.600401 213.4 8.4004 240.7C23.5004 292.3 53.8004 342.9 101.9 385.8C113.7 396.3 126.4 406.3 140 415.7C142.1 417.2 144.6 417.6 146.9 417.2C147.7 417.3 148.5 417.6 149.3 417.6C244.3 424.1 339.4 432 434.8 435.7C523.2 439.1 617.3 437.7 700.2 415.3C737 405.4 754.1 385.8 768.4 363C781.9 341.7 790.9 319.5 795.8 296.7C805.2 252.6 799.1 206.8 776.6 164.6Z" fill="#161618"/>
<path d="M491.2 226C490.9 224.3 490.4 222.3 489.9 220.3C489.4 208.8 481.8 197.4 469 200.2C465 201 465.6 206 468.5 207.5C469.3 208.8 470.8 209.6 472.7 209.1C477.7 207.8 480.6 216.1 482.1 221.7C482.1 222.1 482.1 222.5 482.1 222.9C481.8 228.1 480.4 233.2 479.6 238.4C478 250.3 480.9 262.1 480.3 273.9C480 279.1 488 278.9 488.2 273.9C488.6 265.6 489 257.1 489.9 248.7C490.8 241.1 492.7 233.8 491.2 226Z" fill="#1F2023"/>
<path d="M736.1 384.5C729.7 371.8 712.4 363.6 696.8 358.4C647.3 341.9 591.2 333.8 537.4 331C481.4 328.1 425.2 332.1 370.7 342.4C369.1 342.7 367.9 343.3 367.3 344.1C336.6 346 306 349.1 275.7 353.6C250.2 357.4 224.7 362.5 199.9 368.3C177.1 373.7 153.2 379.2 132 387.6C116.9 393.7 103.3 403.5 103.3 417.3C103.3 430.4 115.7 440.7 129.4 447.6C147.5 457 170 461.2 191.2 464.8C215.7 468.9 240.6 471.3 265.6 472.7C372.4 478.8 482.6 473.4 587.4 457.3C632.3 450.4 682.6 440.4 719.2 418.6C733.4 410.7 743 398 736.1 384.5Z" fill="white"/>
<path d="M469 193.7C453.1 172.3 424 160.2 397.7 163.3C373.6 166.1 351.4 181.7 342.4 204.5C332.7 228.9 341.6 258.1 363.3 272.5C363.8 273.6 365 274.5 366.6 274.4L419.2 271.4C427.9 270.9 436.7 270.3 445.4 269.8C451.5 269.4 458.5 269.9 464.2 267.3C474.9 262.1 477.3 244.3 478.6 233.9C480.2 219.6 477.6 205.5 469 193.7Z" fill="#B4C7E7"/>
<path d="M436.7 221.3C435.5 218.7 431 218.7 429.8 221.3C427.2 227.3 424.5 231.1 417.5 232C413 232.5 408.4 232.5 403.9 232.7C401.9 232.8 396.1 234 394.5 233.1C393.2 232.3 392.1 229.9 391.3 228.6C389.6 226 387.9 221.8 384.7 220.7C378.1 218.2 376.6 225.3 377.3 230C378.8 241.3 381.9 252.2 385.6 263C385.9 263.9 386.5 264.6 387.2 265C387.7 266.2 388.9 267.3 390.6 267.3C408.5 267.8 426.5 268 443.9 262.9C445.5 262.5 446.9 260.8 446.8 259.1C445.3 245.9 442 233.3 436.7 221.3Z" fill="#56597A"/>
<path d="M316.2 144.4C315.3 135.8 311.6 127.1 305.9 120.8C302.7 115.6 297.7 111.9 292 110.5C291.7 110.4 291.3 110.2 291.1 110.2C290.8 110.2 290.6 110.2 290.4 110.1C288.4 109.7 286.4 109.7 284.4 110C269.7 110.8 255.9 121 253.3 136.2C250.3 153.7 263 170.9 280.2 173.8C288.9 175.3 299.3 175.7 306.7 170.2C314.6 164.1 317.3 153.9 316.2 144.4Z" fill="#74A2D6"/>
<path d="M224.8 229C222 229.1 220 229.9 218.4 231.4C218.3 231.3 218 231.1 217.9 231C216.4 229.7 216.4 227.3 216.6 225.4C216.9 222 213.3 220.8 210.8 222.1C208.5 222.4 206.4 224.2 207 227C207.7 230.7 206.2 234 203.4 236.4C200.1 240.2 205.1 245.4 209 242C211.6 239 214.2 243.7 214.7 246C215.9 250.1 223 249.6 222.5 244.9C222.4 243.7 222 240.9 222.4 239.1C224.7 238.4 226.8 237 228.1 234.9C229.9 232.4 227.7 228.8 224.8 229Z" fill="#F5D8B9"/>
<path d="M622.9 278.6C619.2 278.6 618.9 274 618.9 271.3C618.9 269.4 617.8 268.3 616.5 267.9C614.6 265.4 610.1 265 609.5 268.8C609.1 271.6 607.5 274.1 605.1 275.4C603.4 275.4 601.7 275.9 600.1 276.9C596.9 278.8 598 284.7 602.1 284.3C603.6 284.2 604.9 283.9 606.2 283.4C608.1 284.2 608.7 287.9 608.8 289.6C608.9 294.1 615.2 294.9 616.6 290.7C617.5 287.9 620 286.6 622.8 286.7C628.1 286.5 628.1 278.7 622.9 278.6Z" fill="#F5D8B9"/>
<path d="M579.6 104.1C576.8 104.6 575 103 574.7 100.8C575.1 99.1002 575.2 97.4002 575.1 95.5002C574.8 90.5002 566.9 90.3002 567.2 95.5002C567.2 95.9002 567.2 96.2002 567.2 96.4002C566.9 97.5002 566.8 98.5002 566.8 99.6002C565.9 103.3 563.4 106.4 559.5 107.7C559.2 107.8 558.8 108 558.6 108.1C554.5 110 557.4 117 561.6 115.4C562 115.3 562.3 115.1 562.7 115C565.3 113.8 567.3 115.5 568.8 117.9C569.1 120.8 570.3 123.7 572.5 126.2C575.1 129.1 580.3 126.1 579.1 122.4C578.4 120.3 577.6 118.2 576.6 116.2C577 113.9 579.1 112.1 581.9 111.6C586.8 110.9 584.7 103.3 579.6 104.1Z" fill="#F5D8B9"/>
<path d="M460.1 70.7999C455.3 72.3999 455.1 66.3999 455.6 63.6999C456.1 60.7999 453.6 58.7999 451.4 58.6999C448.8 56.6999 443.9 58.7999 445.2 62.7999C447.1 68.3999 444.9 73.7999 440.2 76.7999C439.8 77.0999 439.3 77.2999 438.9 77.5999C434.5 80.3999 438.4 86.6999 442.9 84.4999C446.2 82.3999 448.9 84.3999 450.8 87.2999C451.3 89.6999 452.7 91.8999 454.5 94.0999C457.8 97.6999 462.4 93.1999 460.7 89.2999C460 87.7999 459.2 86.2999 458.2 84.7999C457.8 82.1999 459.3 79.5999 462.3 78.5999C467 76.6999 465 68.9999 460.1 70.7999Z" fill="#F5D8B9"/>
<path d="M366.5 96.7002C365.4 96.7002 364.4 96.8002 363.5 97.1002C359.3 97.1002 356.6 93.5002 357.1 88.9002C357.4 86.6002 355.8 85.3002 354.1 85.2002C351.6 82.0002 345.6 84.1002 347.1 88.5002C349 93.5002 347.9 98.6002 344.6 102.3C343.9 102.8 343.4 103.4 342.9 104C339.6 108 344.6 112.9 348.5 109.6C348.8 109.3 349 109.1 349.3 108.8C352.1 106.9 354.7 111.4 355.9 114C356 114.3 356 114.4 356.2 114.7C358.7 119.3 365.1 115.2 363.1 110.7C363 110.6 363 110.3 362.8 110.2C361.9 107.8 362.9 105.7 365.2 105C366.1 105 366.9 104.9 367.8 104.6C371.9 103.5 371 96.6002 366.5 96.7002Z" fill="#F5D8B9"/>
<path d="M286 281.6C281.2 282.8 277.1 280.8 275.3 276.8C275.2 275.1 274.9 273.4 274.2 271.6C274.1 271.1 273.9 270.5 273.7 270.1C273.4 269.4 273 268.8 272.6 268.1C270.1 263.7 263.2 267.7 265.7 272.1C266 272.5 266.1 272.9 266.4 273.3C266.5 275 266.8 276.7 267.3 278.3C267.2 280.7 266.4 282.9 264.9 284.9C262.9 286 261.1 287.5 259.6 289.7C257.2 293.1 261.7 296.8 265 295.1C267 294 268.6 292.7 270 291.1C272.9 290.6 275.8 293 276.4 296.4C277.2 301.4 284.9 299.3 284.1 294.3C283.7 291.7 285.6 289.5 287.9 288.9C293.2 287.9 291.1 280.3 286 281.6Z" fill="#F5D8B9"/>
<path d="M229.5 176.7C224.3 176.7 224.3 184.6 229.5 184.6C234.5 184.6 234.5 176.7 229.5 176.7Z" fill="white"/>
<path d="M292.4 192.4C287.2 192.4 287.2 200.3 292.4 200.3C297.6 200.3 297.6 192.4 292.4 192.4Z" fill="white"/>
<path d="M238 290.5C232.8 290.5 232.8 298.4 238 298.4C243 298.4 243 290.5 238 290.5Z" fill="white"/>
<path d="M294.9 245.8C289.7 245.8 289.7 253.7 294.9 253.7C299.9 253.7 299.9 245.8 294.9 245.8Z" fill="white"/>
<path d="M523.8 306.3C518.6 306.3 518.6 314.2 523.8 314.2C528.8 314.2 528.8 306.3 523.8 306.3Z" fill="white"/>
<path d="M608.6 214.8C606.5 214.9 604.6 216.5 604.6 218.8V220C604.6 222.1 606.5 224.1 608.6 224C610.7 223.9 612.6 222.3 612.6 220V218.8C612.6 216.6 610.7 214.7 608.6 214.8Z" fill="white"/>
<path d="M551.6 222.7C546.4 222.7 546.4 230.6 551.6 230.6C556.8 230.6 556.7 222.7 551.6 222.7Z" fill="white"/>
<path d="M535 168.5C529.8 168.5 529.8 176.4 535 176.4C540.1 176.4 540.1 168.5 535 168.5Z" fill="white"/>
<path d="M502.7 84.8999C497.5 84.8999 497.5 92.7999 502.7 92.7999C507.9 92.7999 507.9 84.8999 502.7 84.8999Z" fill="white"/>
<path d="M400.3 66.5C395.1 66.5 395.1 74.4 400.3 74.4C405.3 74.5 405.3 66.5 400.3 66.5Z" fill="white"/>
<path d="M396.6 123.5C394.5 123.6 392.6 125.2 392.6 127.5V128.7C392.6 130.8 394.5 132.8 396.6 132.7C398.7 132.6 400.6 131 400.6 128.7V127.5C400.5 125.3 398.7 123.3 396.6 123.5Z" fill="white"/>
<path d="M343.4 165.8C341.3 165.9 339.4 167.5 339.4 169.8V171C339.4 173.1 341.3 175.1 343.4 175C345.5 174.9 347.4 173.3 347.4 171V169.8C347.3 167.7 345.5 165.7 343.4 165.8Z" fill="white"/>
<path d="M314.2 81C309 81 309 88.9 314.2 88.9C319.4 88.9 319.4 81 314.2 81Z" fill="white"/>
<path d="M321.5 325.6C316.3 325.6 316.3 333.5 321.5 333.5C326.5 333.5 326.7 325.6 321.5 325.6Z" fill="white"/>
<path d="M464.2 256.5C451.4 255.3 438.1 256.4 425.3 256.9C412.6 257.4 400 258.5 387.4 260.6C379.9 261.9 364.5 262.6 361.1 271.2C358.1 278.6 365.2 283.4 371.3 285.6C372.1 286.9 373.7 287.9 375.5 287.6C402.9 283.9 430.2 280.2 457.6 276.3C464 275.4 471 275.2 477.2 273.5C480.5 272.6 483.6 270.5 484 266.9C485 257.5 470.3 257 464.2 256.5Z" fill="#EF86B0"/>
<path d="M525.2 225.6C523.6 224.7 521.8 224.9 520.4 226.1C514 231.5 510.2 239.3 505.8 246.4L490 271.8C485.2 270.7 479 272.2 475 272.3C464 272.7 453 273.2 442 273.6L376.1 276.2C370.8 276.5 365.5 276.9 360.2 276.9C356.8 276.9 354.9 276.5 352.5 273.7C350.5 271.4 349.1 268.7 347.3 266.2C340.9 256.9 334.6 247.7 328.2 238.3C324.8 233.3 320.4 223.3 313.4 222.7C307 222 304.8 228.5 306.4 233.7C309.4 243.1 316.1 252.5 321.4 260.8C326.8 269.3 332.9 277.3 339.4 285C339.4 285.1 339.4 285.4 339.4 285.5C341 311 342.6 336.5 344.2 362C345 374.3 345.8 386.6 346.5 398.9C347 406.6 347.3 413.1 356.6 413.2C368.8 413.3 381.2 411.9 393.5 411.2C405.8 410.5 418.1 409.9 430.4 409.2C455.8 407.9 481.4 406.4 506.8 405.1C508.4 405 510.4 404 510.6 402.3C512.5 393.4 509.8 384.4 508.5 375.6C506.8 364.5 505.5 353.4 504.4 342.1C502.5 321.5 501.8 300.8 502 280.2C509.3 269.3 516.7 258.5 524 247.5C528.7 241 534.5 231.1 525.2 225.6Z" fill="#F7D3BC"/>
<path d="M598.8 362.1C597.7 361 596.4 360.9 595.4 361.2H595.3C588 360.4 578 362 572.9 368C568.3 373.3 572.1 380.2 577.9 382.4C584.7 384.9 594 382.5 599.9 378.8C606.9 374.3 603.6 366.6 598.8 362.1ZM594.9 372.3C594.1 373.1 591.6 373.6 590.7 373.9C587.9 374.8 583 376.4 580.4 374.6C578.5 373.3 579.1 372.9 580.9 371.7C582.2 370.8 583.7 370.2 585.1 369.8C588.3 368.9 591.5 368.6 594.6 369C595.5 369.9 596 371 594.9 372.3Z" fill="#1F2023"/>
<path d="M544.6 356.7C543.9 354.4 541.8 353.7 539.7 353.9C535.9 354.4 532 355 528.2 355.5C526.1 355.8 524.9 358.5 525.4 360.4C526.1 362.7 528.2 363.4 530.3 363.2C534.1 362.7 538 362.1 541.8 361.6C543.9 361.3 545.1 358.7 544.6 356.7Z" fill="#1F2023"/>
<path d="M450.4 423L437.4 426C432.4 427.2 434.5 434.9 439.5 433.7C443.9 432.6 448.2 431.7 452.5 430.7C457.6 429.5 455.5 421.8 450.4 423Z" fill="#1F2023"/>
<path d="M325.2 421.2C324.5 418.9 322.4 418 320.3 418.4C317.8 418.8 315.3 419.2 312.8 419.6C310.7 420 309.5 422.6 310 424.5C310.7 426.8 312.8 427.7 314.9 427.3C317.4 426.9 319.9 426.5 322.4 426.1C324.6 425.7 325.8 423 325.2 421.2Z" fill="#1F2023"/>
<path d="M307.9 382.2C303.9 378 297.6 377.3 291.8 378.2C291.1 378.1 290.3 378.1 289.5 378.3C288.6 378.7 287.5 379.1 286.5 379.5C285.8 379.8 285.2 380 284.6 380.3C284.5 380.4 284.2 380.4 284.1 380.6C278.8 383.1 273.1 387 275.9 392.8C279.5 400.3 292.4 398.4 298.7 396.4C304.3 394.7 314.4 389.2 307.9 382.2ZM299.8 387.5C298.1 388.4 295.8 389.1 293.8 389.5C292.1 389.9 290.4 390 288.5 390C287.3 390 285.9 389.6 284.7 389.6C285.1 389.3 285.5 389.1 285.9 388.8C287.5 387.9 289.1 387.1 290.8 386.4C293.7 385.5 296.6 385.5 299.7 386.4C301.3 387.1 301.9 386.3 299.8 387.5Z" fill="#1F2023"/>
<path d="M333.6 364.1H327.5C325.4 364.1 323.4 366 323.5 368.1C323.6 370.2 325.2 372.1 327.5 372.1H333.6C335.7 372.1 337.7 370.2 337.6 368.1C337.4 366 335.8 364.1 333.6 364.1Z" fill="#1F2023"/>
<path d="M541.6 414.1C535.9 414.6 530.2 415.2 524.5 415.7C519.5 416.2 519.5 424.2 524.5 423.6C530.2 423.1 535.9 422.5 541.6 422C546.7 421.5 546.7 413.6 541.6 414.1Z" fill="#1F2023"/>
<path d="M384.7 418.8C380.6 418.4 376.8 418.7 372.7 419.5C370.6 419.9 369.4 422.4 369.9 424.4C370.6 426.7 372.7 427.6 374.8 427.2C378.1 426.7 381.4 426.5 384.7 426.9C386.8 427 388.7 424.9 388.7 422.9C388.6 420.4 386.9 418.9 384.7 418.8Z" fill="#1F2023"/>
<path d="M260.6 409C257.8 409.3 255.2 409.5 252.4 409.7C250.3 409.8 248.4 411.4 248.4 413.7C248.4 415.7 250.3 417.8 252.4 417.7C255.2 417.4 257.8 417.2 260.6 417C262.7 416.9 264.6 415.3 264.6 413C264.6 411 262.7 408.8 260.6 409Z" fill="#1F2023"/>
<path d="M386.4 246.4C382.8 245.5 379.1 244.5 375.5 243.6C370.6 242.3 368.5 250 373.4 251.3C377 252.2 380.7 253.2 384.3 254.1C389.3 255.4 391.4 247.7 386.4 246.4Z" fill="#1F2023"/>
<path d="M448.9 236L437.9 242C433.4 244.4 437.4 251.3 441.9 248.9C445.6 246.9 449.2 244.9 452.9 242.9C457.3 240.3 453.4 233.5 448.9 236Z" fill="#1F2023"/>
<path d="M437.1 226C436.8 224.4 436.6 222.8 436.3 221.2C436 219.1 433.3 217.8 431.4 218.4C429.1 219.1 428.2 221 428.6 223.3C428.9 224.9 429.1 226.5 429.4 228.1C429.7 230.2 432.4 231.5 434.3 230.9C436.5 230.1 437.3 228.2 437.1 226Z" fill="#1F2023"/>
<path d="M387.2 231.5C386.5 229.2 385.7 227 385.1 224.7C384.4 222.7 382.3 221.4 380.2 221.9C378.2 222.4 376.8 224.7 377.4 226.8C378.1 229.1 378.9 231.3 379.5 233.6C380.2 235.6 382.3 236.9 384.4 236.4C386.4 235.8 387.7 233.5 387.2 231.5Z" fill="#1F2023"/>
<path d="M394.2 240.7C389 240.7 389 248.6 394.2 248.6C399.4 248.6 399.3 240.7 394.2 240.7Z" fill="#1F2023"/>
<path d="M429.7 238.7H429C426.9 238.7 424.9 240.6 425 242.7C425.1 244.8 426.7 246.7 429 246.7H429.7C431.8 246.7 433.8 244.8 433.7 242.7C433.5 240.6 431.9 238.7 429.7 238.7Z" fill="#1F2023"/>
<path d="M419.5 247.5C418 246.7 417 245.6 416.1 244.2C414.8 241.9 411.7 241.6 409.9 243.4C407.3 246 405.9 249.2 405.5 252.9C405.2 255 407.5 256.9 409.5 256.9C411.9 256.9 413.2 255 413.5 252.9C414.2 253.4 414.8 253.8 415.6 254.4C419.9 256.9 423.8 250 419.5 247.5Z" fill="#1F2023"/>
<path d="M472.5 401.6C467.9 360 463.4 318.6 458.7 277C458.2 272 450.2 272 450.8 277C455.4 318.6 459.9 360 464.6 401.6C465.1 406.6 473.1 406.6 472.5 401.6Z" fill="#1F2023"/>
<path d="M502.2 277C500.1 273.3 496.6 270.6 492.5 269.3C490.5 268.6 488.1 270.1 487.6 272.1C487.1 274.2 488.3 276.3 490.4 277C492.4 277.7 494.1 279.1 495.3 281C496.4 282.9 498.9 283.5 500.7 282.5C502.7 281.4 503.3 278.9 502.2 277Z" fill="#1F2023"/>
<path d="M352.5 276.6C351.8 274.6 349.7 273.2 347.6 273.8C344.4 274.7 341.8 276.8 339.9 279.6C338.8 281.3 339.5 284.1 341.4 285C343.4 286.1 345.6 285.4 346.8 283.5C346.9 283.4 347.1 283.1 347.2 283C346.8 283.7 347.2 283.1 347.3 282.9C347.4 282.8 347.6 282.6 347.7 282.5C347.7 282.5 348 282.4 348 282.2C348.3 282.1 348.5 281.8 348.8 281.7C348.8 281.7 349.2 281.6 349.3 281.4C349.4 281.4 349.7 281.3 349.7 281.3C351.7 280.8 353.2 278.7 352.5 276.6Z" fill="#1F2023"/>
<path d="M290.5 149.7C279.8 152.2 268.9 152.9 257.9 151.8C252.9 151.3 252.9 159.2 257.9 159.7C269.5 160.9 281.2 160.1 292.6 157.3C297.7 156.1 295.6 148.5 290.5 149.7Z" fill="#1F2023"/>
<path d="M306.4 122C296.6 125.3 286.7 126.6 276.5 126.1C271.3 125.8 271.5 133.8 276.5 134C287.5 134.5 298.2 133.2 308.5 129.6C313.4 128.1 311.3 120.4 306.4 122Z" fill="#1F2023"/>
<path d="M736.5 225.8C735 207.3 720.5 192.7 702.9 190.9C687.5 183.6 667.8 187.5 656.3 200.2C642.9 215 641.9 238.2 651.7 255.1C674.9 294.7 739.8 269.7 736.5 225.8Z" fill="#EF86B0"/>
<path d="M150.5 218.9C148.2 213.6 144.5 209.1 139.1 206.1C132.2 202.3 123.9 202 117 204.9C116.9 204.9 116.6 204.9 116.5 205C102.5 208.7 91.5996 221.3 90.9996 236C90.4996 250.4 100.4 264.5 114.2 268.7C128 272.9 144.1 267.1 151.8 254.8C158.6 244 158 229.1 150.5 218.9Z" fill="#B4C7E7"/>
<path d="M160 224.8C154.8 224.5 155 232.5 160 232.7C162.1 233.1 162.6 234.2 161.7 235.7C161.7 237.6 160.6 238.5 158.5 238.3C156.1 239.1 153.6 239.6 151.2 240.3C147.1 241.4 143.1 242.4 139 243.3C129.6 245.4 120.1 247.3 110.5 248.6C101 250.1 91.2001 251.1 81.5001 251.6C79.9001 251.7 78.2001 251.9 76.6001 251.6C74.0001 251.1 72.8001 250.9 74.1001 248.2C76.0001 244.2 83.2001 241.8 87.1001 240.9C92.1001 239.7 90.0001 232 85.0001 233.2C77.2001 235.1 56.8001 246.3 68.1001 256.2C72.7001 260.3 79.6001 259.6 85.3001 259.2C94.0001 258.5 102.8 257.5 111.4 256.3C120.5 255 129.7 253.3 138.7 251.3C146.8 249.4 155.8 248 163.5 244.8C174.1 240.6 171.7 225.4 160 224.8Z" fill="#EF86B0"/>
<path d="M684.2 241.3C674.5 246.5 663.9 248.1 653.4 245.8C648.4 244.7 646.3 252.4 651.3 253.5C664.1 256.1 676.7 254.4 688.4 248.2C692.7 245.6 688.7 238.9 684.2 241.3Z" fill="#1F2023"/>
<path d="M720.3 208.2C708.3 213.1 695.9 216.3 683 217.6C678 218.1 678 226.1 683 225.5C696.6 224 709.7 220.9 722.4 215.8C727.2 214 725.1 206.3 720.3 208.2Z" fill="#1F2023"/>
<path d="M709.2 251.5H704.6C702.5 251.5 700.5 253.4 700.6 255.5C700.7 257.6 702.3 259.5 704.6 259.5H709.2C711.3 259.5 713.3 257.6 713.2 255.5C713.1 253.2 711.5 251.5 709.2 251.5Z" fill="#1F2023"/>
<path d="M130.8 214.5H123.1C117.9 214.5 117.9 222.4 123.1 222.4H130.8C135.8 222.5 135.8 214.5 130.8 214.5Z" fill="#1F2023"/>
<path d="M119.9 231.3C115.4 231.4 111 232.8 107.2 235.1C102.8 237.7 106.8 244.6 111.2 242C113.8 240.4 116.8 239.5 119.9 239.2C125.1 239 125.1 231.1 119.9 231.3Z" fill="#1F2023"/>
<path d="M137.7 258.7C137 256.8 134.9 255.1 132.8 255.9C131.2 256.6 129.6 257.1 128.2 257.8C126.2 258.6 124.8 260.4 125.4 262.7C126.1 264.6 128.2 266.3 130.3 265.5C131.9 264.8 133.5 264.3 134.9 263.6C136.9 262.8 138.4 261 137.7 258.7Z" fill="#1F2023"/>
<path d="M756.2 308.6C753.6 309 751 309.4 748.4 309.9C748 307.9 747.7 306.1 747.3 304.1C746.4 299.1 738.8 301.2 739.6 306.2C739.9 307.9 740.1 309.5 740.5 311.2C738.6 311.5 736.9 311.7 735.1 312.1C730.1 312.9 732.2 320.6 737.2 319.8C738.8 319.5 740.2 319.3 741.8 319L743 326C743.9 331 751.5 328.9 750.7 323.9C750.3 321.8 750 319.8 749.6 317.7C752.5 317.3 755.3 316.8 758.2 316.4C763.4 315.4 761.2 307.8 756.2 308.6Z" fill="#F5D8B9"/>
<path d="M140.4 121.9H132.1C131 118.2 130.1 114.5 129.1 110.9C127.8 106 120.1 108.1 121.4 113C122.2 115.9 123 119 123.9 121.9H120.7C115.5 121.9 115.5 129.8 120.7 129.8H126.1C126.6 131.5 127 133.2 127.6 135C128.9 139.9 136.6 137.8 135.3 132.9C135 131.8 134.8 130.9 134.5 129.9H140.7C145.5 129.8 145.5 121.9 140.4 121.9Z" fill="#F5D8B9"/>
<path d="M153.3 297.9C151.2 298.7 148.9 299.4 146.8 300.2C146.3 298.9 145.6 297.6 145.1 296.2C144.2 294.2 141.4 293.8 139.7 294.7C137.7 295.9 137.4 298.1 138.2 300.1C138.6 300.9 139 301.8 139.4 302.6C138.6 302.9 137.8 303.1 137 303.4C132.2 305 134.2 312.7 139.1 311.1C140.3 310.7 141.4 310.3 142.5 309.9C143 311.2 143.7 312.5 144.2 313.9C145.1 315.9 147.9 316.3 149.6 315.4C151.6 314.2 151.9 312 151.1 310C150.7 309.2 150.3 308.3 149.9 307.5C151.8 306.8 153.5 306.3 155.3 305.6C160.3 303.9 158.2 296.2 153.3 297.9Z" fill="#F5D8B9"/>
<path d="M658.5 381.8C653.9 383 649.1 383.5 644.3 383.8C639.1 383.9 639.1 391.9 644.3 391.7C649.7 391.6 655.2 390.8 660.6 389.4C665.5 388.3 663.4 380.6 658.5 381.8Z" fill="#1F2023"/>
<path d="M613.1 422.7C606.5 424.3 599.9 425.2 593.1 425.5C587.9 425.6 587.9 433.6 593.1 433.4C600.5 433.1 607.9 432.1 615.2 430.4C620.3 429.2 618.2 421.5 613.1 422.7Z" fill="#1F2023"/>
<path d="M296.6 450.7C293.2 452.3 289.6 452.8 285.9 452.6C280.7 452.2 280.9 460.1 285.9 460.5C291.1 460.9 296 459.8 300.7 457.6C305.4 455.3 301.3 448.6 296.6 450.7Z" fill="#1F2023"/>
<path d="M197.5 430.4H184.7C179.5 430.4 179.5 438.3 184.7 438.3H197.5C202.5 438.4 202.5 430.4 197.5 430.4Z" fill="#1F2023"/>
<path d="M196.3 394.4C191.7 395.6 187 395.9 182.3 395.5C177.3 395.1 177.3 403 182.3 403.4C187.7 403.8 193.2 403.4 198.4 402.1C203.4 400.8 201.3 393.1 196.3 394.4Z" fill="#1F2023"/>
<path d="M689.8 126.6H684.6C684.2 124.5 683.7 122.4 683.1 120.2C681.6 115.3 674 117.4 675.4 122.3C675.8 123.8 676.2 125.2 676.5 126.5H673.5C668.3 126.5 668.3 134.4 673.5 134.4H677.6C677.7 136.5 677.7 138.8 677.6 140.9C677.3 146.1 685.3 145.9 685.5 140.9C685.6 138.8 685.6 136.5 685.5 134.4H689.7C694.9 134.6 694.9 126.6 689.8 126.6Z" fill="#F5D8B9"/>
<path d="M239.3 67.2H230.3C229.9 64.3 229.5 61.4 229.1 58.5C228.4 53.5 220.8 55.6 221.4 60.6C221.7 62.9 222.1 65 222.3 67.2H218.3C213.1 67.2 213.1 75.1 218.3 75.1H223.3C223.6 76.8 223.8 78.5 224.1 80.3C224.8 85.3 232.4 83.2 231.8 78.2C231.7 77.1 231.5 76.2 231.4 75.2H239.3C244.5 75.1 244.5 67.2 239.3 67.2Z" fill="#F5D8B9"/>
<path d="M186.9 109.2C181.7 109.2 181.7 117.1 186.9 117.1C192.1 117.1 192.1 109.2 186.9 109.2Z" fill="white"/>
<path d="M85.6002 167.3C80.4002 167.3 80.4002 175.2 85.6002 175.2C90.8002 175.2 90.8002 167.3 85.6002 167.3Z" fill="white"/>
<path d="M202.1 318.6C196.9 318.6 196.9 326.5 202.1 326.5C207.1 326.5 207.1 318.6 202.1 318.6Z" fill="white"/>
<path d="M128.8 358.1C123.6 358.1 123.6 366 128.8 366C133.8 366.1 133.8 358.1 128.8 358.1Z" fill="white"/>
<path d="M94.9996 312.7C89.7996 312.7 89.7996 320.6 94.9996 320.6C100.1 320.7 100.1 312.7 94.9996 312.7Z" fill="white"/>
<path d="M302.2 31.2001C300.1 31.3001 298.2 32.9001 298.2 35.2001V36.4001C298.2 38.5001 300.1 40.5001 302.2 40.4001C304.3 40.3001 306.2 38.7001 306.2 36.4001V35.2001C306.2 33.0001 304.3 31.1001 302.2 31.2001Z" fill="white"/>
<path d="M479 132.8C473.8 132.8 473.8 140.7 479 140.7C484.1 140.8 484.1 132.8 479 132.8Z" fill="white"/>
<path d="M532 32.1999C530.4 30.6999 527.9 30.5999 526.4 32.1999C526 32.5999 525.6 32.9999 525.2 33.3999C523.7 34.8999 523.6 37.4999 525.2 38.9999C526.8 40.4999 529.3 40.5999 530.8 38.9999L532 37.7999C533.4 36.4999 533.6 33.6999 532 32.1999Z" fill="white"/>
<path d="M619.9 128.9H618.7C616.6 128.9 614.6 130.8 614.7 132.9C614.8 135 616.4 136.9 618.7 136.9H619.9C622 136.9 624 135 623.9 132.9C623.8 130.7 622.1 128.9 619.9 128.9Z" fill="white"/>
<path d="M749.1 168.5H747.9C745.8 168.5 743.8 170.4 743.9 172.5C744 174.6 745.6 176.5 747.9 176.5H749.1C751.2 176.5 753.2 174.6 753.1 172.5C753 170.3 751.3 168.5 749.1 168.5Z" fill="white"/>
<path d="M683.9 326.8C678.7 326.8 678.7 334.7 683.9 334.7C689.1 334.7 689.1 326.8 683.9 326.8Z" fill="white"/>
</g>
<defs>
<clipPath id="clip0">
<rect width="800" height="475.2" fill="white"/>
</clipPath>
</defs>
</svg>
